<svg width="123" height="129" viewBox="0 0 123 129" fill="none" style="stroke:hover: white" xmlns="http://www.w3.org/2000/svg">
<path d="M70.5535 48.994C66.8693 47.4139 68.1038 46.5919 63.9852 46.5919H56.6856V46.1693C56.6856 45.253 56.3541 44.3742 55.7638 43.7263C55.1736 43.0784 54.3731 42.7144 53.5384 42.7144H33.3406C32.5059 42.7144 31.7054 43.0784 31.1151 43.7263C30.5249 44.3742 30.1933 45.253 30.1933 46.1693V46.5919H26.661L24.8949 42.7144H21.3625V58.2246H24.8949L26.661 54.347H30.1933V54.7697C30.1933 55.686 30.5249 56.5647 31.1151 57.2126C31.7054 57.8606 32.5059 58.2246 33.3406 58.2246H53.5384C54.3731 58.2246 55.1736 57.8606 55.7638 57.2126C56.3541 56.5647 56.6856 55.686 56.6856 54.7697V54.347H63.9852C68.1038 54.347 66.8693 53.525 70.5535 51.9449L73.994 50.4695L70.5535 48.994Z" stroke="#3C6255" stroke-width="3.70232" stroke-linecap="round" stroke-linejoin="round"/>
<path d="M97.0458 76.1369C93.3616 74.5568 94.5961 73.7347 90.4775 73.7347H83.178V73.3121C83.178 72.3958 82.8464 71.517 82.2561 70.8691C81.6659 70.2212 80.8654 69.8572 80.0307 69.8572H59.8329C58.9982 69.8572 58.1977 70.2212 57.6075 70.8691C57.0172 71.517 56.6856 72.3958 56.6856 73.3121V73.7347H53.1533L51.3872 69.8572H47.8549V85.3674H51.3872L53.1533 81.4898H56.6856V81.9125C56.6856 82.8288 57.0172 83.7075 57.6075 84.3555C58.1977 85.0034 58.9982 85.3674 59.8329 85.3674H80.0307C80.444 85.3674 80.8532 85.278 81.2351 85.1044C81.6169 84.9308 81.9639 84.6763 82.2561 84.3555C82.5484 84.0347 82.7802 83.6538 82.9384 83.2346C83.0965 82.8154 83.178 82.3662 83.178 81.9125V81.4898H90.4775C94.5961 81.4898 93.3616 80.6678 97.0458 79.0877L100.486 77.6123L97.0458 76.1369Z" stroke="#3C6255" stroke-width="3.70232" stroke-linecap="round" stroke-linejoin="round"/>
<path d="M102.344 23.7899C98.6601 22.2098 99.8946 21.3878 95.7759 21.3878H88.4764V20.9652C88.4764 20.5114 88.395 20.0622 88.2368 19.643C88.0787 19.2239 87.8469 18.843 87.5546 18.5222C87.2623 18.2014 86.9154 17.9469 86.5335 17.7732C86.1517 17.5996 85.7424 17.5103 85.3291 17.5103H65.1314C64.2967 17.5103 63.4961 17.8743 62.9059 18.5222C62.3157 19.1701 61.9841 20.0489 61.9841 20.9652V21.3878H58.4518L56.6856 17.5103H53.1533V33.0205H56.6856L58.4518 29.1429H61.9841V29.5656C61.9841 30.4819 62.3157 31.3606 62.9059 32.0085C63.4961 32.6565 64.2967 33.0205 65.1314 33.0205H85.3291C86.1638 33.0205 86.9644 32.6565 87.5546 32.0085C88.1448 31.3606 88.4764 30.4819 88.4764 29.5656V29.1429H95.7759C99.8946 29.1429 98.6601 28.3209 102.344 26.7408L105.785 25.2654L102.344 23.7899Z" stroke="#3C6255" stroke-width="3.70232" stroke-linecap="round" stroke-linejoin="round"/>
<path d="M37.2579 42.7144V58.2246" stroke="#3C6255" stroke-width="3.70232" stroke-linejoin="round"/>
<path d="M63.7502 69.8572V85.3674" stroke="#3C6255" stroke-width="3.70232" stroke-linejoin="round"/>
<path d="M69.0487 17.5103V33.0205" stroke="#3C6255" stroke-width="3.70232" stroke-linejoin="round"/>
<path d="M44.3225 15.5714H15.181C13.5415 15.5714 11.9692 14.8565 10.81 13.5839C9.65072 12.3114 8.99945 10.5854 8.99945 8.78571C8.99945 6.98603 9.65072 5.26006 10.81 3.98749C11.9692 2.71492 13.5415 2 15.181 2H17.8302" stroke="#3C6255" stroke-width="3.70232" stroke-linecap="round" stroke-linejoin="round"/>
<path d="M46.0887 23.3265H33.7256" stroke="#3C6255" stroke-width="3.70232" stroke-linecap="round" stroke-linejoin="round"/>
<path d="M26.661 23.3265H17.8302" stroke="#3C6255" stroke-width="3.70232" stroke-linecap="round" stroke-linejoin="round"/>
<path d="M46.0887 33.0204H16.0641C13.722 33.0204 11.4758 34.0417 9.81975 35.8597C8.16366 37.6776 7.23328 40.1433 7.23328 42.7143" stroke="#3C6255" stroke-width="3.70232" stroke-linecap="round" stroke-linejoin="round"/>
<path d="M16.064 50.4695H3.70093" stroke="#3C6255" stroke-width="3.70232" stroke-linecap="round" stroke-linejoin="round"/>
<path d="M33.7255 65.9795H24.8948" stroke="#3C6255" stroke-width="3.70232" stroke-linecap="round" stroke-linejoin="round"/>
<path d="M40.7902 85.3673H8.99939C7.59415 85.3673 6.24647 85.9801 5.25281 87.0709C4.25916 88.1616 3.70093 89.6411 3.70093 91.1836C3.70093 92.7262 4.25916 94.2056 5.25281 95.2964C6.24647 96.3872 7.59415 97 8.99939 97H26.6609" stroke="#3C6255" stroke-width="3.70232" stroke-linecap="round" stroke-linejoin="round"/>
<path d="M13.4148 65.9795H17.8302" stroke="#3C6255" stroke-width="3.70232" stroke-linecap="round" stroke-linejoin="round"/>
<path d="M39.0241 77.6121H7.23328C5.82804 77.6121 4.48035 76.9994 3.4867 75.9086C2.49304 74.8178 1.93481 73.3384 1.93481 71.7958C1.93481 70.2532 2.49304 68.7738 3.4867 67.6831C4.48035 66.5923 5.82804 65.9795 7.23328 65.9795" stroke="#3C6255" stroke-width="3.70232" stroke-linecap="round" stroke-linejoin="round"/>

</svg>