<svg width="105" height="109" viewBox="0 0 105 109" fill="none" xmlns="http://www.w3.org/2000/svg">
<path d="M95.9303 18.7783C97.0471 18.7783 97.9524 17.7932 97.9524 16.578C97.9524 15.3628 97.0471 14.3777 95.9303 14.3777C94.8135 14.3777 93.9082 15.3628 93.9082 16.578C93.9082 17.7932 94.8135 18.7783 95.9303 18.7783Z" fill="black"/>
<path d="M82.0809 52.2159L79.0013 10.3346" stroke="#3C6255" stroke-width="3.88744" stroke-linecap="round" stroke-linejoin="round"/>
<path d="M25.3436 10.1462L22.2336 52.4435" stroke="#3C6255" stroke-width="3.88744" stroke-linecap="round" stroke-linejoin="round"/>
<path d="M77.8062 50.1459L75.7841 39.1445C75.6725 38.5359 75.3705 37.9883 74.9295 37.5949C74.4885 37.2015 73.9357 36.9866 73.3654 36.9869H30.9652C30.3949 36.9866 29.8421 37.2015 29.4011 37.5949C28.9601 37.9883 28.6581 38.5359 28.5465 39.1445L26.5815 49.8349" stroke="#3C6255" stroke-width="3.88744" stroke-linecap="round" stroke-linejoin="round"/>
<path d="M71.8149 85.5799H95.0371V60.7974C95.0367 59.6377 94.6131 58.5256 93.8594 57.7056C93.1058 56.8855 92.0837 56.4246 91.0179 56.4241H84.3192" stroke="#3C6255" stroke-width="3.88744" stroke-linecap="round" stroke-linejoin="round"/>
<path d="M19.7274 56.4241H13.3127C12.2468 56.4246 11.2248 56.8855 10.4712 57.7056C9.71751 58.5256 9.2939 59.6377 9.29343 60.7974V85.5799H32.5157" stroke="#3C6255" stroke-width="3.88744" stroke-linecap="round" stroke-linejoin="round"/>
<path d="M69.5516 56.4242H66.3362C65.9037 52.6676 64.2254 49.2121 61.6167 46.7069C59.0079 44.2018 55.6483 42.8193 52.1689 42.8193C48.6895 42.8193 45.3298 44.2018 42.7211 46.7069C40.1123 49.2121 38.434 52.6676 38.0015 56.4242H34.5039" stroke="#3C6255" stroke-width="3.88744" stroke-linecap="round" stroke-linejoin="round"/>
<path d="M27.1567 66.1428C31.103 66.1428 34.302 62.6618 34.302 58.3679C34.302 54.0739 31.103 50.593 27.1567 50.593C23.2105 50.593 20.0114 54.0739 20.0114 58.3679C20.0114 62.6618 23.2105 66.1428 27.1567 66.1428Z" stroke="#3C6255" stroke-width="3.88744" stroke-linecap="round" stroke-linejoin="round"/>
<path d="M77.1739 66.1428C81.1201 66.1428 84.3192 62.6618 84.3192 58.3679C84.3192 54.0739 81.1201 50.593 77.1739 50.593C73.2276 50.593 70.0286 54.0739 70.0286 58.3679C70.0286 62.6618 73.2276 66.1428 77.1739 66.1428Z" stroke="#3C6255" stroke-width="3.88744" stroke-linecap="round" stroke-linejoin="round"/>
<path d="M8.82721 77.8051H2.14813V87.5236C2.14813 89.0702 2.71274 90.5533 3.71774 91.6469C4.72275 92.7404 6.08582 93.3548 7.50711 93.3548H96.8235C98.2448 93.3548 99.6078 92.7404 100.613 91.6469C101.618 90.5533 102.182 89.0702 102.182 87.5236V77.8051H95.9303" stroke="#3C6255" stroke-width="3.88744" stroke-linecap="round" stroke-linejoin="round"/>
<path d="M25.3704 94.072V102.068C25.3704 103.366 24.8967 104.61 24.0535 105.528C23.2103 106.445 22.0667 106.961 20.8742 106.961H17.3623C16.1698 106.961 15.0262 106.445 14.183 105.528C13.3398 104.61 12.8661 103.366 12.8661 102.068V94.3461" stroke="#3C6255" stroke-width="3.88744" stroke-linecap="round" stroke-linejoin="round"/>
<path d="M91.4645 94.072V102.068C91.4645 103.366 90.9908 104.61 90.1476 105.528C89.3044 106.445 88.1608 106.961 86.9683 106.961H83.4564C82.2639 106.961 81.1203 106.445 80.2771 105.528C79.4339 104.61 78.9602 103.366 78.9602 102.068V94.5307" stroke="#3C6255" stroke-width="3.88744" stroke-linecap="round" stroke-linejoin="round"/>
<path d="M52.1653 60.3115C54.0604 60.3115 55.8778 61.1307 57.2178 62.5887C58.5578 64.0468 59.3106 66.0244 59.3106 68.0864V85.5799H45.02V68.0864C45.02 66.0244 45.7728 64.0468 47.1128 62.5887C48.4528 61.1307 50.2702 60.3115 52.1653 60.3115Z" stroke="#3C6255" stroke-width="3.88744" stroke-linecap="round" stroke-linejoin="round"/>
<path d="M68.2422 94.072V101.13H36.0883V94.072" stroke="#3C6255" stroke-width="3.88744" stroke-linecap="round" stroke-linejoin="round"/>
<path d="M37.8747 89.4674C40.8344 89.4674 43.2337 86.8567 43.2337 83.6362C43.2337 80.4158 40.8344 77.8051 37.8747 77.8051C34.915 77.8051 32.5157 80.4158 32.5157 83.6362C32.5157 86.8567 34.915 89.4674 37.8747 89.4674Z" stroke="#3C6255" stroke-width="3.88744" stroke-linecap="round" stroke-linejoin="round"/>
<path d="M66.4559 89.4674C69.4156 89.4674 71.8149 86.8567 71.8149 83.6362C71.8149 80.4158 69.4156 77.8051 66.4559 77.8051C63.4962 77.8051 61.0969 80.4158 61.0969 83.6362C61.0969 86.8567 63.4962 89.4674 66.4559 89.4674Z" stroke="#3C6255" stroke-width="3.88744" stroke-linecap="round" stroke-linejoin="round"/>
<path d="M30.7294 2H73.6012C75.4963 2 77.3137 2.81914 78.6537 4.27721C79.9937 5.73528 80.7465 7.71285 80.7465 9.77487H23.584C23.584 7.71285 24.3369 5.73528 25.6769 4.27721C27.0169 2.81914 28.8343 2 30.7294 2Z" stroke="#3C6255" stroke-width="3.88744" stroke-linecap="round" stroke-linejoin="round"/>
<path d="M37.8747 15.6061L31.6225 22.4091" stroke="#3C6255" stroke-width="3.88744" stroke-linecap="round" stroke-linejoin="round"/>
<path d="M45.02 15.6061L32.5157 29.2121" stroke="#3C6255" stroke-width="3.88744" stroke-linecap="round" stroke-linejoin="round"/>
<path d="M84.3192 54.4804L93.2508 44.7618" stroke="#3C6255" stroke-width="3.88744" stroke-linecap="round" stroke-linejoin="round"/>
<path d="M96.8235 44.7618C98.7966 44.7618 100.396 43.0213 100.396 40.8744C100.396 38.7274 98.7966 36.9869 96.8235 36.9869C94.8504 36.9869 93.2508 38.7274 93.2508 40.8744C93.2508 43.0213 94.8504 44.7618 96.8235 44.7618Z" stroke="#3C6255" stroke-width="3.88744" stroke-linecap="round" stroke-linejoin="round"/>
<path d="M20.0114 54.4804L11.0798 44.7618" stroke="#3C6255" stroke-width="3.88744" stroke-linecap="round" stroke-linejoin="round"/>
<path d="M7.5071 44.7618C9.48023 44.7618 11.0798 43.0213 11.0798 40.8744C11.0798 38.7274 9.48023 36.9869 7.5071 36.9869C5.53398 36.9869 3.93445 38.7274 3.93445 40.8744C3.93445 43.0213 5.53398 44.7618 7.5071 44.7618Z" stroke="#3C6255" stroke-width="3.88744" stroke-linecap="round" stroke-linejoin="round"/>
</svg>
