<svg width="123" height="129" viewBox="0 0 123 129" fill="none" xmlns="http://www.w3.org/2000/svg">
<path d="M31.8695 77.1156V55.4084C31.8695 51.6662 30.5033 48.0773 28.0715 45.4312C25.6396 42.785 22.3413 41.2985 18.9021 41.2985C15.4629 41.2985 12.1646 42.785 9.73276 45.4312C7.3009 48.0773 5.93469 51.6662 5.93469 55.4084V77.1156" stroke="#3C6255" stroke-width="4.03142" stroke-linecap="round" stroke-linejoin="round"/>
<path d="M15.1971 77.1156V65.4869H22.6071V77.1156" stroke="#3C6255" stroke-width="4.03142" stroke-linecap="round" stroke-linejoin="round"/>
<path d="M5.93469 101.066V84.5757V101.066Z" fill="#FFDED5"/>
<path d="M5.93469 101.066V84.5757" stroke="#3C6255" stroke-width="4.03142" stroke-linecap="round" stroke-linejoin="round"/>
<path d="M4.08221 101.77H31.8695V115.88H4.08221V101.77Z" stroke="#3C6255" stroke-width="4.03142" stroke-linecap="round" stroke-linejoin="round"/>
<path d="M62.9599 10.5206C64.0536 10.5206 64.9402 9.55591 64.9402 8.36585C64.9402 7.17579 64.0536 6.21106 62.9599 6.21106C61.8662 6.21106 60.9796 7.17579 60.9796 8.36585C60.9796 9.55591 61.8662 10.5206 62.9599 10.5206Z" fill="black"/>
<path d="M15.1971 101.066V89.6754H22.6071V101.066" stroke="#3C6255" stroke-width="4.03142" stroke-linecap="round" stroke-linejoin="round"/>
<path d="M28.1646 45.1021V21.1414C28.1646 18.4684 27.1887 15.9049 25.4517 14.0148C23.7146 12.1247 21.3587 11.0629 18.9021 11.0629C16.4456 11.0629 14.0897 12.1247 12.3526 14.0148C10.6156 15.9049 9.63971 18.4684 9.63971 21.1414V44.6204" stroke="#3C6255" stroke-width="4.03142" stroke-linecap="round" stroke-linejoin="round"/>
<path d="M18.9021 33.2356V41.2984" stroke="#3C6255" stroke-width="4.03142" stroke-linecap="round" stroke-linejoin="round"/>
<path d="M98.5591 77.1156V55.4084C98.5591 51.6662 97.1929 48.0773 94.761 45.4312C92.3292 42.785 89.0309 41.2985 85.5917 41.2985C82.1525 41.2985 78.8542 42.785 76.4223 45.4312C73.9905 48.0773 72.6243 51.6662 72.6243 55.4084V77.1156" stroke="#3C6255" stroke-width="4.03142" stroke-linecap="round" stroke-linejoin="round"/>
<path d="M81.8867 77.1156V65.4869H89.2967V77.1156" stroke="#3C6255" stroke-width="4.03142" stroke-linecap="round" stroke-linejoin="round"/>
<path d="M48.5419 60.3872V76.8273V60.3872Z" fill="#B5A19C"/>
<path d="M48.5419 60.3872V76.8273" stroke="#3C6255" stroke-width="4.03142" stroke-linecap="round" stroke-linejoin="round"/>
<path d="M41.132 77.1156V60.3872V77.1156Z" fill="#B5A19C"/>
<path d="M41.132 77.1156V60.3872" stroke="#3C6255" stroke-width="4.03142" stroke-linecap="round" stroke-linejoin="round"/>
<path d="M48.5419 84.5757V115.126V84.5757Z" fill="#B5A19C"/>
<path d="M48.5419 84.5757V115.126" stroke="#3C6255" stroke-width="4.03142" stroke-linecap="round" stroke-linejoin="round"/>
<path d="M41.132 115.414V84.5757V115.414Z" fill="#B5A19C"/>
<path d="M41.132 115.414V84.5757" stroke="#3C6255" stroke-width="4.03142" stroke-linecap="round" stroke-linejoin="round"/>
<path d="M63.3618 60.3872V76.8273V60.3872Z" fill="#B5A19C"/>
<path d="M63.3618 60.3872V76.8273" stroke="#3C6255" stroke-width="4.03142" stroke-linecap="round" stroke-linejoin="round"/>
<path d="M55.9519 77.1156V60.3872V77.1156Z" fill="#B5A19C"/>
<path d="M55.9519 77.1156V60.3872" stroke="#3C6255" stroke-width="4.03142" stroke-linecap="round" stroke-linejoin="round"/>
<path d="M63.3618 84.5757V115.126V84.5757Z" fill="#B5A19C"/>
<path d="M63.3618 84.5757V115.126" stroke="#3C6255" stroke-width="4.03142" stroke-linecap="round" stroke-linejoin="round"/>
<path d="M55.9519 115.414V84.5757V115.414Z" fill="#B5A19C"/>
<path d="M55.9519 115.414V84.5757" stroke="#3C6255" stroke-width="4.03142" stroke-linecap="round" stroke-linejoin="round"/>
<path d="M98.5591 84.5757V101.066" stroke="#3C6255" stroke-width="4.03142" stroke-linecap="round" stroke-linejoin="round"/>
<path d="M72.6243 101.77H100.412V115.88H72.6243V101.77Z" stroke="#3C6255" stroke-width="4.03142" stroke-linecap="round" stroke-linejoin="round"/>
<path d="M81.8867 101.066V89.6754H89.2967V101.066" stroke="#3C6255" stroke-width="4.03142" stroke-linecap="round" stroke-linejoin="round"/>
<path d="M94.8541 44.6204V21.1414C94.8541 18.4684 93.8782 15.9049 92.1412 14.0148C90.4041 12.1247 88.0482 11.0629 85.5917 11.0629C83.1351 11.0629 80.7792 12.1247 79.0421 14.0148C77.3051 15.9049 76.3292 18.4684 76.3292 21.1414V45.1021" stroke="#3C6255" stroke-width="4.03142" stroke-linecap="round" stroke-linejoin="round"/>
<path d="M31.8695 84.5757V115.88H72.6242V84.5757" stroke="#3C6255" stroke-width="4.03142" stroke-linecap="round" stroke-linejoin="round"/>
<path d="M72.6242 77.1155V53.3927C72.6242 49.6505 71.258 46.0616 68.8262 43.4154C66.3943 40.7693 63.096 39.2827 59.6568 39.2827H44.8369C41.3977 39.2827 38.0994 40.7693 35.6676 43.4154C33.2357 46.0616 31.8695 49.6505 31.8695 53.3927V77.1155" stroke="#3C6255" stroke-width="4.03142" stroke-linecap="round" stroke-linejoin="round"/>
<path d="M85.5917 33.2356V41.2984" stroke="#3C6255" stroke-width="4.03142" stroke-linecap="round" stroke-linejoin="round"/>
<path d="M39.2795 58.9459V53.3927C39.2795 49.6505 40.6457 46.0616 43.0775 43.4154C45.5094 40.7693 48.8077 39.2827 52.2469 39.2827C55.6861 39.2827 58.9844 40.7693 61.4162 43.4154C63.8481 46.0616 65.2143 49.6505 65.2143 53.3927V58.5609" stroke="#3C6255" stroke-width="4.03142" stroke-linecap="round" stroke-linejoin="round"/>
<path d="M44.8481 38.8535C44.9491 36.7924 45.7726 34.852 47.1491 33.4319C48.5255 32.0118 50.3501 31.2201 52.2469 31.22C54.1262 31.22 55.9353 31.997 57.308 33.3936C58.6806 34.7903 59.5143 36.7023 59.6402 38.7426" stroke="#3C6255" stroke-width="4.03142" stroke-linecap="round" stroke-linejoin="round"/>
<path d="M52.2469 31.2199V17.11" stroke="#3C6255" stroke-width="4.03142" stroke-linecap="round" stroke-linejoin="round"/>
<path d="M85.5917 11.0629V5.01575" stroke="#3C6255" stroke-width="4.03142" stroke-linecap="round" stroke-linejoin="round"/>
<path d="M18.9021 11.0629V5.01575" stroke="#3C6255" stroke-width="4.03142" stroke-linecap="round" stroke-linejoin="round"/>
<path d="M2.22974 77.5812H102.264V83.6283H2.22974V77.5812Z" stroke="#3C6255" stroke-width="4.03142" stroke-linecap="round" stroke-linejoin="round"/>
<path d="M48.5419 21.1414H55.9519" stroke="#3C6255" stroke-width="4.03142" stroke-linecap="round" stroke-linejoin="round"/>
<path d="M37.427 11.0628C39.4732 11.0628 41.132 9.25791 41.132 7.03142C41.132 4.80493 39.4732 3 37.427 3C35.3808 3 33.722 4.80493 33.722 7.03142C33.722 9.25791 35.3808 11.0628 37.427 11.0628Z" stroke="#3C6255" stroke-width="4.03142" stroke-linecap="round" stroke-linejoin="round"/>
<path d="M5.93469 59.4398H98.5591" stroke="#3C6255" stroke-width="4.03142" stroke-linejoin="round"/>
<path d="M28.1646 27.1885H9.63971" stroke="#3C6255" stroke-width="4.03142" stroke-linejoin="round"/>
<path d="M94.8541 27.1885H76.3292" stroke="#3C6255" stroke-width="4.03142" stroke-linejoin="round"/>
</svg>
