<svg width="104" height="92" viewBox="0 0 104 92" fill="none" xmlns="http://www.w3.org/2000/svg">
<path d="M6.21357 68.637C8.54066 68.637 10.4271 66.8033 10.4271 64.5412C10.4271 62.2792 8.54066 60.4454 6.21357 60.4454C3.88648 60.4454 2 62.2792 2 64.5412C2 66.8033 3.88648 68.637 6.21357 68.637Z" stroke="#3C6255" stroke-width="3.68868" stroke-linecap="round" stroke-linejoin="round"/>
<path d="M15.5289 35.8707L13.7188 36.7505C13.3659 36.9211 13.0511 37.1575 12.7923 37.4464C12.5335 37.7353 12.3359 38.071 12.2106 38.4342C12.0854 38.7974 12.0351 39.181 12.0625 39.5631C12.0899 39.9453 12.1945 40.3184 12.3704 40.6612L21.5257 58.4599C21.7985 58.99 21.8984 59.5885 21.8122 60.1752L21.3419 63.3732C21.2814 63.7868 21.3129 64.2081 21.4343 64.6087C21.5558 65.0094 21.7643 65.38 22.0459 65.6955C22.3275 66.011 22.6755 66.264 23.0664 66.4374C23.4573 66.6109 23.882 66.7006 24.3117 66.7007C24.904 66.7003 25.4828 66.5292 25.9752 66.2092L31.0129 62.944C31.5056 62.6246 32.0843 62.4536 32.6764 62.4525H35.3192C36.1146 62.4521 36.8772 62.1446 37.4395 61.5978C38.0017 61.0509 38.3176 60.3094 38.3176 59.5363V59.0006C38.318 58.2277 38.6341 57.4866 39.1963 56.9401C39.7585 56.3936 40.5209 56.0864 41.3159 56.086H56.7224C57.1162 56.0857 57.5062 56.1609 57.8701 56.3074C58.2339 56.4539 58.5644 56.6687 58.8427 56.9396L64.5293 62.4591V64.5889H68.7429C69.4119 64.5891 70.0616 64.8065 70.5889 65.2066C71.1163 65.6067 71.491 66.1666 71.6536 66.7973L72.7003 72.9902C72.8636 73.6169 73.2364 74.173 73.7602 74.5713C74.284 74.9696 74.9291 75.1874 75.5942 75.1905H80.1313C80.6884 75.1903 81.2345 75.0393 81.7083 74.7546C82.1822 74.4699 82.5652 74.0626 82.8145 73.5784L83.3387 72.5577C83.5881 72.0736 83.9712 71.6665 84.4451 71.3821C84.919 71.0977 85.465 70.9471 86.0219 70.9472H88.9765C90.0534 70.9472 91.0462 68.2636 91.5804 67.356L99.207 54.3805C99.3676 54.1086 99.4814 53.8131 99.5441 53.5056L101.412 44.431C101.553 43.7407 101.433 43.0239 101.074 42.4126L93.4681 29.4813C93.1008 28.8616 92.5116 28.3951 91.813 28.1706L88.1708 26.991C87.6274 26.8147 87.1474 26.4908 86.7875 26.0576C86.4276 25.6245 86.2028 25.1001 86.1399 24.5467L85.4404 18.4275C85.385 17.9438 85.2059 17.4813 84.9195 17.0821C84.633 16.6829 84.2483 16.3597 83.8005 16.1421L82.5516 15.5359C82.0534 15.2936 81.6344 14.9212 81.3415 14.4606C81.0486 14 80.8934 13.4692 80.8931 12.9277V8.34692H78.7105L73.5902 16.6417C73.2015 17.2718 72.5824 17.736 71.8568 17.9413C71.1311 18.1467 70.3525 18.0781 69.6766 17.7493L65.7563 15.8439C65.1107 15.5301 64.603 15.0005 64.3266 14.3523C64.0501 13.7041 64.0234 12.9808 64.2512 12.3149L64.2967 12.1839C64.4468 11.7457 64.4875 11.2791 64.4158 10.8226C64.344 10.3661 64.1617 9.93266 63.8839 9.55801C63.6061 9.18336 63.2408 8.8782 62.8179 8.66765C62.3951 8.45709 61.9268 8.34717 61.4517 8.34692H54.373C53.8159 8.34714 53.2698 8.49805 52.7959 8.78277C52.3221 9.06748 51.9391 9.47476 51.6898 9.95903L49.229 14.7429C48.9239 15.3359 48.4201 15.81 47.8006 16.0873C47.1811 16.3646 46.4829 16.4284 45.8211 16.2682L41.4036 15.1951C41.019 15.1012 40.6191 15.0825 40.227 15.1402C39.835 15.1978 39.4586 15.3307 39.1198 15.531" stroke="#3C6255" stroke-width="3.68868" stroke-linecap="round" stroke-linejoin="round"/>
<path d="M31.8995 80.1972C32.8945 80.1972 33.7012 79.4131 33.7012 78.4458C33.7012 77.4786 32.8945 76.6945 31.8995 76.6945C30.9044 76.6945 30.0977 77.4786 30.0977 78.4458C30.0977 79.4131 30.9044 80.1972 31.8995 80.1972Z" fill="black"/>
<path d="M50.8774 75.1903V78.467" stroke="#3C6255" stroke-width="3.68868" stroke-linecap="round" stroke-linejoin="round"/>
<path d="M50.8774 85.0203V88.2969" stroke="#3C6255" stroke-width="3.68868" stroke-linecap="round" stroke-linejoin="round"/>
<path d="M44.1357 81.7437H47.5065" stroke="#3C6255" stroke-width="3.68868" stroke-linecap="round" stroke-linejoin="round"/>
<path d="M54.2482 81.7437H57.6191" stroke="#3C6255" stroke-width="3.68868" stroke-linecap="round" stroke-linejoin="round"/>
<path d="M74.6419 81.7437H81.0465C81.2412 81.7435 81.4326 81.7917 81.6026 81.8838C81.7727 81.9758 81.9157 82.1086 82.018 82.2695C82.1204 82.4304 82.1787 82.6141 82.1874 82.8031C82.1962 82.992 82.155 83.1801 82.0679 83.3492L79.5297 89.9353L73.6138 83.3492C73.5264 83.1796 73.4853 82.9909 73.4944 82.8014C73.5034 82.6119 73.5623 82.4278 73.6655 82.2667C73.7686 82.1056 73.9125 81.9729 74.0835 81.8814C74.2545 81.7898 74.4467 81.7424 74.6419 81.7437Z" stroke="#3C6255" stroke-width="3.68868" stroke-linecap="round" stroke-linejoin="round"/>
<path d="M25.2269 2C21.722 2.0419 18.3776 3.43505 15.9292 5.87316C13.4807 8.31127 12.1285 11.5948 12.1699 15.0017C12.1699 22.1825 25.2269 39.1473 25.2269 39.1473C25.2269 39.1473 38.2839 22.1825 38.2839 15.0017C38.3257 11.5946 36.9736 8.31089 34.5251 5.87269C32.0765 3.43448 28.7319 2.04146 25.2269 2ZM25.2269 21.5829C23.8808 21.6151 22.5554 21.2566 21.42 20.5531C20.2846 19.8495 19.3906 18.833 18.8525 17.6332C18.3143 16.4335 18.1562 15.105 18.3985 13.8176C18.6408 12.5301 19.2724 11.342 20.2127 10.4052C21.153 9.46834 22.3592 8.82522 23.6773 8.55798C24.9954 8.29074 26.3656 8.41152 27.6127 8.90488C28.8599 9.39825 29.9274 10.2418 30.679 11.3278C31.4305 12.4138 31.832 13.6929 31.8321 15.0017C31.8532 16.7256 31.1694 18.3872 29.9308 19.6212C28.6923 20.8553 27.0003 21.5608 25.2269 21.5829Z" stroke="#3C6255" stroke-width="3.68868" stroke-linecap="round" stroke-linejoin="round"/>
<path d="M79.1605 29.8516C75.6556 29.8935 72.3113 31.2866 69.8628 33.7247C67.4144 36.1628 66.0622 39.4463 66.1035 42.8533C66.1035 50.034 79.1605 66.9989 79.1605 66.9989C79.1605 66.9989 92.2175 50.034 92.2175 42.8533C92.2594 39.4462 90.9073 36.1625 88.4587 33.7242C86.0102 31.286 82.6656 29.893 79.1605 29.8516ZM79.1605 49.4344C77.8145 49.4667 76.4891 49.1081 75.3536 48.4046C74.2182 47.7011 73.3243 46.6846 72.7861 45.4848C72.2479 44.2851 72.0899 42.9566 72.3322 41.6691C72.5745 40.3816 73.2061 39.1936 74.1464 38.2567C75.0866 37.3199 76.2929 36.6768 77.611 36.4095C78.9291 36.1423 80.2992 36.2631 81.5464 36.7564C82.7935 37.2498 83.8611 38.0934 84.6126 39.1793C85.3642 40.2653 85.7657 41.5444 85.7657 42.8533C85.7869 44.5772 85.103 46.2388 83.8645 47.4728C82.6259 48.7068 80.934 49.4124 79.1605 49.4344Z" stroke="#3C6255" stroke-width="3.68868" stroke-linecap="round" stroke-linejoin="round"/>
</svg>
