<svg width="123" height="129" viewBox="0 0 123 129" fill="none" xmlns="http://www.w3.org/2000/svg">
<path d="M11.2691 3V7.49883" stroke="#3C6255" stroke-width="4.49883" stroke-linecap="round" stroke-linejoin="round"/>
<path d="M11.2691 16.4965V20.9953" stroke="#3C6255" stroke-width="4.49883" stroke-linecap="round" stroke-linejoin="round"/>
<path d="M3 11.9977H7.13454" stroke="#3C6255" stroke-width="4.49883" stroke-linecap="round" stroke-linejoin="round"/>
<path d="M15.4036 11.9977H19.5382" stroke="#3C6255" stroke-width="4.49883" stroke-linecap="round" stroke-linejoin="round"/>
<path d="M90.8591 20.9954C93.7134 20.9954 96.0272 18.4776 96.0272 15.3718C96.0272 12.266 93.7134 9.74829 90.8591 9.74829C88.0048 9.74829 85.6909 12.266 85.6909 15.3718C85.6909 18.4776 88.0048 20.9954 90.8591 20.9954Z" stroke="#3C6255" stroke-width="4.49883" stroke-linecap="round" stroke-linejoin="round"/>
<path d="M39.4894 23.4697C39.4894 23.9453 39.3598 24.4102 39.117 24.8056C38.8742 25.2011 38.529 25.5093 38.1252 25.6913C37.7214 25.8733 37.2771 25.9209 36.8484 25.8281C36.4197 25.7353 36.0259 25.5063 35.7169 25.17C35.4078 24.8337 35.1973 24.4053 35.1121 23.9388C35.0268 23.4724 35.0706 22.9889 35.2378 22.5495C35.4051 22.1101 35.6883 21.7345 36.0517 21.4703C36.4152 21.2061 36.8424 21.0651 37.2795 21.0651C37.8656 21.0651 38.4277 21.3184 38.8422 21.7694C39.2566 22.2203 39.4894 22.8319 39.4894 23.4697Z" fill="black"/>
<path d="M122.18 27.9686C122.18 28.4442 122.051 28.9091 121.808 29.3045C121.565 29.7 121.22 30.0082 120.816 30.1902C120.412 30.3722 119.968 30.4198 119.539 30.327C119.111 30.2342 118.717 30.0052 118.408 29.6689C118.099 29.3326 117.888 28.9042 117.803 28.4377C117.718 27.9713 117.761 27.4878 117.929 27.0484C118.096 26.609 118.379 26.2334 118.743 25.9692C119.106 25.705 119.533 25.564 119.97 25.564C120.557 25.564 121.119 25.8173 121.533 26.2683C121.947 26.7192 122.18 27.3308 122.18 27.9686Z" fill="black"/>
<path d="M70.8561 110.871L61.0387 121.544C58.9064 123.864 56.0145 125.168 52.999 125.168C49.9836 125.168 47.0917 123.864 44.9594 121.544C42.8272 119.224 41.6294 116.078 41.6294 112.796C41.6294 109.515 42.8272 106.369 44.9594 104.048L91.7377 53.1621C93.8699 50.8421 96.7619 49.5387 99.7773 49.5387C102.793 49.5387 105.685 50.8421 107.817 53.1621C109.949 55.4823 111.147 58.629 111.147 61.9101C111.147 65.1912 109.949 68.3379 107.817 70.6581L91.2415 88.6939" stroke="#3C6255" stroke-width="4.49883" stroke-linecap="round" stroke-linejoin="round"/>
<path d="M25.74 101.648V124.469" stroke="#3C6255" stroke-width="4.49883" stroke-linecap="round" stroke-linejoin="round"/>
<path d="M17.4709 126.718H34.0091" stroke="#3C6255" stroke-width="4.49883" stroke-linecap="round" stroke-linejoin="round"/>
<path d="M5.79909 70.1046C1.32964 84.204 10.1073 99.6282 23.7844 100.598C24.2791 100.634 24.7787 100.652 25.2831 100.652C28.2074 100.66 31.1052 100.049 33.8148 98.8522C38.4906 96.6564 42.2703 92.681 44.4458 87.6707C46.6214 82.6604 47.0436 76.9589 45.6334 71.6342L40.9179 52.4872H11.2133L5.79909 70.1046Z" stroke="#3C6255" stroke-width="4.49883" stroke-linecap="round" stroke-linejoin="round"/>
<path d="M45.2902 70.2577C39.3426 72.1637 33.6632 74.9482 28.4109 78.5333C17.8926 85.2096 9.8344 83.329 4.77991 80.3913" stroke="#3C6255" stroke-width="4.49883" stroke-linejoin="round"/>
<path d="M84.3906 61.1499L98.0945 61.4851" stroke="#3C6255" stroke-width="4.49883" stroke-linecap="round" stroke-linejoin="round"/>
<path d="M69.9196 76.8958L83.6236 77.2309" stroke="#3C6255" stroke-width="4.49883" stroke-linecap="round" stroke-linejoin="round"/>
<path d="M55.4488 92.6417L67.0855 92.8082" stroke="#3C6255" stroke-width="4.49883" stroke-linecap="round" stroke-linejoin="round"/>
<path d="M44.3537 106.17L56.7491 106.473" stroke="#3C6255" stroke-width="4.49883" stroke-linecap="round" stroke-linejoin="round"/>
<path d="M71.22 99.7249L83.6236 86.2284L114.633 99.7249V124.468H71.22V99.7249Z" stroke="#3C6255" stroke-width="4.49883" stroke-linecap="round" stroke-linejoin="round"/>
<path d="M71.22 99.725H89.8254V112.097C89.8254 112.992 90.1521 113.85 90.7337 114.483C91.3152 115.115 92.1039 115.471 92.9264 115.471C93.7488 115.471 94.5375 115.115 95.119 114.483C95.7006 113.85 96.0273 112.992 96.0273 112.097V105.349C96.0273 106.243 96.354 107.102 96.9355 107.734C97.517 108.367 98.3058 108.723 99.1282 108.723C99.9506 108.723 100.739 108.367 101.321 107.734C101.902 107.102 102.229 106.243 102.229 105.349V99.725H114.633" stroke="#3C6255" stroke-width="4.49883" stroke-linejoin="round"/>
</svg>
