<svg width="98" height="128" viewBox="0 0 98 128" fill="none" xmlns="http://www.w3.org/2000/svg">
<path d="M26.611 75.4219H69.54V85.7678H26.611V75.4219Z" stroke="#3C6255" stroke-width="5.22313" stroke-linecap="round" stroke-linejoin="round"/>
<path d="M26.0743 124.567C26.1496 119.161 28.4489 114.005 32.4667 110.232C36.4846 106.46 41.8921 104.38 47.5002 104.45H48.5992C54.2073 104.38 59.6148 106.46 63.6327 110.232C67.6505 114.005 69.9499 119.161 70.0251 124.567V125.082H95.2974L66.0284 85.7677H30.2363L3 125.082H26.0743V124.567Z" stroke="#3C6255" stroke-width="5.22313" stroke-linecap="round" stroke-linejoin="round"/>
<path d="M9.28908 116.777H26.5637" stroke="#3C6255" stroke-width="5.22313" stroke-linecap="round" stroke-linejoin="round"/>
<path d="M69.7503 116.777L88.3751 116.806" stroke="#3C6255" stroke-width="5.22313" stroke-linecap="round" stroke-linejoin="round"/>
<path d="M28.2723 114.736L40.96 86.6533" stroke="#3C6255" stroke-width="5.22313" stroke-linecap="round" stroke-linejoin="round"/>
<path d="M71.2743 116.806L54.9763 86.0511" stroke="#3C6255" stroke-width="5.22313" stroke-linecap="round" stroke-linejoin="round"/>
<path d="M64.5645 75.4217H31.5864L38.8758 36.1071H57.2751L64.5645 75.4217Z" stroke="#3C6255" stroke-width="5.22313" stroke-linecap="round" stroke-linejoin="round"/>
<path d="M37.2702 48.5347H58.7433" stroke="#3C6255" stroke-width="5.22313" stroke-linecap="round" stroke-linejoin="round"/>
<path d="M54.2079 36.1072H41.9431L44.1689 9.20764H51.982L54.2079 36.1072Z" stroke="#3C6255" stroke-width="5.22313" stroke-linecap="round" stroke-linejoin="round"/>
<path d="M48.0755 9.20758V3" stroke="#3C6255" stroke-width="5.22313" stroke-linecap="round" stroke-linejoin="round"/>
<path d="M39.4897 67.145H45.929" stroke="#3C6255" stroke-width="5.22313" stroke-linecap="round" stroke-linejoin="round"/>
<path d="M41.6361 58.8683H54.5148" stroke="#3C6255" stroke-width="5.22313" stroke-linecap="round" stroke-linejoin="round"/>
<path d="M59.3808 92.7637L73.8329 96.1137L68.2392 107.627L86.7116 114.736" stroke="#3C6255" stroke-width="5.22313" stroke-linecap="round" stroke-linejoin="round"/>
<path d="M37.7317 92.7637L22.64 97.5063L29.8585 108.891L11.8155 114.9" stroke="#3C6255" stroke-width="5.22313" stroke-linecap="round" stroke-linejoin="round"/>
</svg>
